<?xml version="1.0" encoding="utf-8"?>
<!-- Generator: Adobe Illustrator 23.0.2, SVG Export Plug-In . SVG Version: 6.00 Build 0)  -->
<svg version="1.1" id="Livello_1" xmlns="http://www.w3.org/2000/svg" xmlns:xlink="http://www.w3.org/1999/xlink" x="0px" y="0px"
	 viewBox="0 0 200 200" style="enable-background:new 0 0 200 200;" xml:space="preserve">
<style type="text/css">
	.st0{fill:none;stroke:#444F58;stroke-width:4;stroke-miterlimit:10;}
	.st1{fill:none;stroke:#444F58;stroke-width:4;stroke-miterlimit:10;stroke-dasharray:10.8,10.8;}
	.st2{fill:none;stroke:#444F58;stroke-width:4;stroke-miterlimit:10;stroke-dasharray:11.5556,11.5556;}
	.st3{fill:none;stroke:#444F58;stroke-width:4;stroke-miterlimit:10;stroke-dasharray:11.2,11.2;}
</style>
<g>
	<g>
		<g>
			<line class="st0" x1="124" y1="56" x2="130" y2="56"/>
			<line class="st1" x1="140.8" y1="56" x2="178.6" y2="56"/>
			<polyline class="st0" points="184,56 190,56 190,62 			"/>
			<line class="st2" x1="190" y1="73.56" x2="190" y2="160.22"/>
			<polyline class="st0" points="190,166 190,172 184,172 			"/>
			<line class="st3" x1="172.8" y1="172" x2="21.6" y2="172"/>
			<polyline class="st0" points="16,172 10,172 10,166 			"/>
			<line class="st2" x1="10" y1="154.44" x2="10" y2="67.78"/>
			<polyline class="st0" points="10,62 10,56 16,56 			"/>
			<line class="st0" x1="23.15" y1="56" x2="29.15" y2="56"/>
		</g>
	</g>
	<g>
		<polygon class="st0" points="147,125 140,132 123,115 115,128 101,85 142,100 130,107 		"/>
		<polygon class="st0" points="101,85 107.51,105 31,105 31,28 123,28 123,93.05 		"/>
		<polyline class="st0" points="32,94 53,74 65,85 97,54 123,78.86 		"/>
		<circle class="st0" cx="58" cy="52" r="10"/>
	</g>
</g>
</svg>
