<?xml version="1.0" encoding="utf-8"?>
<!-- Generator: Adobe Illustrator 26.0.1, SVG Export Plug-In . SVG Version: 6.00 Build 0)  -->
<svg version="1.1" id="Layer_1" xmlns="http://www.w3.org/2000/svg" xmlns:xlink="http://www.w3.org/1999/xlink" x="0px" y="0px"
	 viewBox="0 0 528.4 198.87" style="enable-background:new 0 0 528.4 198.87;" xml:space="preserve">
<style type="text/css">
	.st0{fill:#6D6E71;}
	.st1{fill:#3783C5;}
	.st2{fill:#FFFFFF;}
	.st3{fill:url(#SVGID_1_);}
	.st4{fill:#1D71AD;}
</style>
<g>
	<g>
		<path class="st0" d="M26.87,179.73c-2.39,0-4.42-0.37-6.08-1.1c-1.66-0.73-2.9-1.91-3.72-3.53c-0.82-1.62-1.23-3.75-1.23-6.39
			v-35.58h9.32v34.07c0,1.01,0.18,1.83,0.54,2.46c0.36,0.63,0.85,1.06,1.48,1.29c0.63,0.23,1.34,0.35,2.14,0.35h14.74v8.44H26.87z"
			/>
		<path class="st0" d="M60.88,180.05c-1.01,0-2.16-0.09-3.46-0.28c-1.3-0.19-2.55-0.62-3.75-1.29c-1.2-0.67-2.18-1.69-2.96-3.05
			c-0.78-1.36-1.17-3.24-1.17-5.64v-26.01c0-2.06,0.31-3.78,0.94-5.16s1.47-2.48,2.52-3.27c1.05-0.8,2.2-1.36,3.46-1.7
			c1.26-0.34,2.5-0.5,3.72-0.5c3.15,0,5.93,0.04,8.34,0.13c2.41,0.08,4.59,0.18,6.52,0.28c1.93,0.11,3.69,0.24,5.29,0.41v7.81H62.96
			c-1.3,0-2.31,0.31-3.02,0.94c-0.71,0.63-1.07,1.6-1.07,2.9v6.74l18.45,0.5v7.37l-18.45,0.5v6.42c0,1.09,0.18,1.94,0.54,2.55
			c0.36,0.61,0.84,1.03,1.45,1.26c0.61,0.23,1.25,0.35,1.92,0.35h17.57v7.81c-1.85,0.21-3.89,0.38-6.14,0.5
			c-2.25,0.13-4.51,0.23-6.8,0.31C65.11,180.01,62.94,180.05,60.88,180.05z"/>
		<path class="st0" d="M98.79,179.73l-14.61-46.6h9.63l10.9,36.53l10.89-36.53h9.57l-14.61,46.6H98.79z"/>
		<path class="st0" d="M140.04,180.05c-1.01,0-2.16-0.09-3.46-0.28c-1.3-0.19-2.55-0.62-3.75-1.29c-1.2-0.67-2.18-1.69-2.96-3.05
			c-0.78-1.36-1.17-3.24-1.17-5.64v-26.01c0-2.06,0.32-3.78,0.94-5.16c0.63-1.39,1.47-2.48,2.52-3.27c1.05-0.8,2.2-1.36,3.46-1.7
			c1.26-0.34,2.5-0.5,3.71-0.5c3.15,0,5.93,0.04,8.34,0.13c2.41,0.08,4.59,0.18,6.52,0.28c1.93,0.11,3.69,0.24,5.29,0.41v7.81
			h-17.38c-1.3,0-2.31,0.31-3.02,0.94s-1.07,1.6-1.07,2.9v6.74l18.45,0.5v7.37l-18.45,0.5v6.42c0,1.09,0.18,1.94,0.54,2.55
			c0.36,0.61,0.84,1.03,1.45,1.26c0.61,0.23,1.25,0.35,1.92,0.35h17.57v7.81c-1.85,0.21-3.89,0.38-6.14,0.5
			c-2.25,0.13-4.51,0.23-6.8,0.31C144.27,180.01,142.1,180.05,140.04,180.05z"/>
		<path class="st0" d="M177.32,179.73c-2.39,0-4.42-0.37-6.08-1.1c-1.66-0.73-2.9-1.91-3.71-3.53c-0.82-1.62-1.23-3.75-1.23-6.39
			v-35.58h9.32v34.07c0,1.01,0.18,1.83,0.54,2.46c0.36,0.63,0.85,1.06,1.48,1.29c0.63,0.23,1.34,0.35,2.14,0.35h14.74v8.44H177.32z"
			/>
	</g>
	<g>
		<g>
			<path class="st1" d="M221.77,180.12c-2.8,0-5.25-0.32-7.33-0.96c-2.08-0.64-3.8-1.79-5.16-3.47c-1.36-1.68-2.37-4.09-3.03-7.23
				c-0.66-3.14-0.99-7.24-0.99-12.3c0-4.76,0.34-8.68,1.02-11.76c0.68-3.08,1.71-5.49,3.09-7.23c1.38-1.74,3.13-2.96,5.26-3.66
				c2.12-0.7,4.63-1.05,7.52-1.05c1.32,0,2.78,0.08,4.4,0.25c1.61,0.17,3.21,0.37,4.78,0.6c1.57,0.23,3,0.52,4.27,0.86v3.76
				c-0.72-0.13-1.74-0.25-3.06-0.38c-1.32-0.13-2.81-0.24-4.49-0.35c-1.68-0.11-3.39-0.16-5.13-0.16c-2.25,0-4.19,0.25-5.8,0.76
				s-2.92,1.46-3.92,2.84c-1,1.38-1.73,3.32-2.2,5.83c-0.47,2.51-0.7,5.76-0.7,9.75c0,4.04,0.22,7.34,0.67,9.91
				c0.45,2.57,1.16,4.54,2.13,5.89c0.98,1.36,2.25,2.29,3.82,2.8c1.57,0.51,3.53,0.76,5.86,0.76c3.19,0,5.8-0.08,7.84-0.25
				c2.04-0.17,3.7-0.36,4.97-0.57v3.82c-1.27,0.3-2.69,0.56-4.24,0.8c-1.55,0.23-3.14,0.41-4.78,0.54
				C224.94,180.05,223.34,180.12,221.77,180.12z"/>
			<path class="st1" d="M259.75,180.12c-3.02,0-5.66-0.29-7.93-0.86c-2.27-0.57-4.16-1.67-5.67-3.28c-1.51-1.61-2.63-3.99-3.38-7.14
				c-0.74-3.14-1.12-7.26-1.12-12.36c0-5.1,0.38-9.23,1.15-12.39s1.91-5.59,3.44-7.26c1.53-1.68,3.42-2.83,5.67-3.44
				c2.25-0.62,4.86-0.92,7.84-0.92c3.06,0,5.72,0.31,8,0.92c2.27,0.62,4.16,1.76,5.67,3.44c1.51,1.68,2.62,4.1,3.35,7.26
				c0.72,3.17,1.08,7.3,1.08,12.39c0,5.1-0.37,9.22-1.12,12.36c-0.74,3.14-1.87,5.52-3.38,7.14c-1.51,1.62-3.39,2.71-5.64,3.28
				C265.46,179.83,262.81,180.12,259.75,180.12z M259.75,175.59c2.38,0,4.4-0.23,6.05-0.7c1.66-0.47,3-1.37,4.05-2.71
				c1.04-1.34,1.79-3.26,2.26-5.77c0.47-2.51,0.7-5.82,0.7-9.94c0-4.29-0.25-7.73-0.73-10.32c-0.49-2.59-1.25-4.54-2.29-5.86
				c-1.04-1.32-2.38-2.19-4.01-2.61c-1.64-0.42-3.64-0.64-6.02-0.64c-2.21,0-4.13,0.21-5.77,0.64c-1.64,0.43-3,1.3-4.08,2.61
				c-1.08,1.32-1.89,3.27-2.42,5.86c-0.53,2.59-0.8,6.03-0.8,10.32c0,4.12,0.22,7.43,0.67,9.94c0.45,2.51,1.18,4.43,2.2,5.77
				c1.02,1.34,2.37,2.24,4.05,2.71C255.28,175.36,257.33,175.59,259.75,175.59z"/>
			<path class="st1" d="M283.96,179.73l5.35-46.9h5.16l12.49,40.53l12.24-40.53h5.22l5.48,46.9H325l-4.72-41.1l0.83,0.13
				l-11.85,40.98h-4.65l-12.17-40.91l0.96-0.13l-4.52,41.04H283.96z"/>
			<path class="st1" d="M338.45,179.73v-46.9h18.67c1.36,0,2.75,0.18,4.17,0.54c1.42,0.36,2.75,1.06,3.98,2.1
				c1.23,1.04,2.22,2.55,2.96,4.52s1.12,4.58,1.12,7.81c0,3.31-0.39,5.98-1.18,8c-0.79,2.02-1.81,3.57-3.06,4.65
				c-1.25,1.08-2.6,1.82-4.05,2.2c-1.44,0.38-2.85,0.57-4.21,0.57c-0.64,0-1.57-0.02-2.8-0.06c-1.23-0.04-2.54-0.1-3.92-0.16
				c-1.38-0.06-2.67-0.14-3.86-0.22c-1.19-0.08-2.1-0.15-2.74-0.19v17.14H338.45z M343.55,158.7h12.68c1.49,0,2.85-0.32,4.08-0.96
				c1.23-0.64,2.2-1.74,2.9-3.31c0.7-1.57,1.05-3.76,1.05-6.56c0-2.76-0.35-4.9-1.05-6.4c-0.7-1.51-1.62-2.56-2.77-3.15
				c-1.15-0.59-2.4-0.89-3.76-0.89h-13.13V158.7z"/>
			<path class="st1" d="M386.37,179.73c-1.83,0-3.45-0.29-4.88-0.86c-1.42-0.57-2.54-1.55-3.35-2.93c-0.81-1.38-1.21-3.26-1.21-5.64
				v-37.47h5.1v36.77c0,1.53,0.25,2.69,0.76,3.47s1.19,1.32,2.04,1.59c0.85,0.28,1.72,0.41,2.61,0.41h16.82v4.65H386.37z"/>
			<path class="st1" d="M420.78,179.99c-1.02,0-2.1-0.1-3.25-0.29c-1.15-0.19-2.23-0.58-3.25-1.18c-1.02-0.59-1.85-1.5-2.49-2.71
				c-0.64-1.21-0.96-2.86-0.96-4.94v-28.61c0-1.83,0.26-3.35,0.8-4.56s1.24-2.17,2.13-2.87c0.89-0.7,1.89-1.21,3-1.53
				c1.1-0.32,2.21-0.48,3.31-0.48c2.63,0.04,5.08,0.1,7.33,0.16c2.25,0.06,4.39,0.13,6.4,0.19c2.02,0.06,3.98,0.14,5.89,0.22v4.08
				h-18.35c-1.66,0-2.97,0.45-3.95,1.34c-0.98,0.89-1.47,2.32-1.47,4.27v11.09l20.97,0.32v3.89l-20.97,0.32v11.02
				c0,1.57,0.26,2.76,0.8,3.57c0.53,0.81,1.24,1.34,2.13,1.59c0.89,0.25,1.8,0.38,2.74,0.38h18.1v4.08c-1.95,0.13-4,0.23-6.15,0.32
				c-2.15,0.08-4.29,0.15-6.44,0.19C424.98,179.9,422.86,179.95,420.78,179.99z"/>
			<path class="st1" d="M458.83,179.73v-42.31h-14.47v-4.59h34.03v4.59h-14.47v42.31H458.83z"/>
			<path class="st1" d="M493.62,179.99c-1.02,0-2.1-0.1-3.25-0.29c-1.15-0.19-2.23-0.58-3.25-1.18c-1.02-0.59-1.85-1.5-2.49-2.71
				c-0.64-1.21-0.96-2.86-0.96-4.94v-28.61c0-1.83,0.26-3.35,0.8-4.56s1.24-2.17,2.13-2.87c0.89-0.7,1.89-1.21,3-1.53
				c1.1-0.32,2.21-0.48,3.31-0.48c2.63,0.04,5.08,0.1,7.33,0.16c2.25,0.06,4.39,0.13,6.4,0.19c2.02,0.06,3.98,0.14,5.89,0.22v4.08
				h-18.35c-1.66,0-2.97,0.45-3.95,1.34c-0.98,0.89-1.47,2.32-1.47,4.27v11.09l20.97,0.32v3.89l-20.97,0.32v11.02
				c0,1.57,0.26,2.76,0.8,3.57c0.53,0.81,1.24,1.34,2.13,1.59c0.89,0.25,1.8,0.38,2.74,0.38h18.1v4.08c-1.95,0.13-4,0.23-6.15,0.32
				c-2.15,0.08-4.29,0.15-6.44,0.19C497.81,179.9,495.7,179.95,493.62,179.99z"/>
		</g>
	</g>
</g>
<g>
	<g>
		<g>
			<path class="st2" d="M311.88,113.82c-27,0-45.18-21.46-58.45-37.13l-1.89-2.23c-1.23-1.45-2.45-2.9-3.66-4.34
				c-12.56-14.93-20.79-24.08-31.35-24.08c-11.85,0-21.5,8.83-21.5,19.69h-31c0-26.52,23.55-48.09,52.5-48.09
				c26.35,0,42.05,18.68,55.91,35.15c1.17,1.4,2.35,2.8,3.55,4.21l1.94,2.28c9.87,11.65,22.14,26.14,33.96,26.14
				c11.86,0,21.5-8.83,21.5-19.69h31C364.38,92.25,340.82,113.82,311.88,113.82z"/>
		</g>
		<radialGradient id="SVGID_1_" cx="263.8674" cy="68.5949" r="61.4781" gradientUnits="userSpaceOnUse">
			<stop  offset="0" style="stop-color:#878787"/>
			<stop  offset="0.6293" style="stop-color:#FFFFFF;stop-opacity:0"/>
		</radialGradient>
		<path class="st3" d="M323.15,66.25c-10.33-6.83-20.36-18.67-29-28.86l-2.56-3.01c-1.58-1.86-3.14-3.71-4.69-5.56
			c-6.73-8-13.8-16.4-21.77-23.82l-60.56,65.73c5.52,5.23,11.4,12.07,18.25,20.22c1.6,1.9,3.21,3.81,4.84,5.73l2.5,2.95
			c8.86,10.45,19.37,22.86,32.2,32.57L323.15,66.25z"/>
		<g>
			<path class="st2" d="M216.52,113.82c-28.95,0-52.5-21.57-52.5-48.09h31c0,10.86,9.65,19.69,21.5,19.69
				c10.56,0,18.79-9.15,31.35-24.08c1.21-1.44,2.43-2.89,3.66-4.34l1.89-2.23c13.27-15.67,31.45-37.13,58.45-37.13
				c28.95,0,52.5,21.57,52.5,48.09h-31c0-10.86-9.64-19.69-21.5-19.69c-11.81,0-24.09,14.49-33.96,26.14l-1.94,2.28
				c-1.2,1.41-2.38,2.81-3.55,4.21C258.57,95.15,242.87,113.82,216.52,113.82z"/>
		</g>
	</g>
	<g>
		<path class="st4" d="M343.24,27.12c10.2,5.5,18.86,15.23,21.94,26.73c3.2,11.58,1.65,24.59-4.83,34.77
			c-4.22,6.63-10.46,12.51-17.18,15.63c5.64-5.21,10.57-10.97,13.88-17.51c6.55-13.02,6.55-28.97-0.04-41.95
			C353.8,38.19,348.37,32.47,343.24,27.12L343.24,27.12z"/>
	</g>
	<g>
		<path class="st4" d="M185.16,104.35c-10.2-5.5-18.86-15.23-21.94-26.73c-3.2-11.58-1.65-24.59,4.83-34.77
			c4.22-6.63,10.46-12.51,17.18-15.63c-5.64,5.21-10.57,10.96-13.88,17.51c-6.55,13.02-6.55,28.97,0.04,41.95
			C174.59,93.28,180.03,99,185.16,104.35L185.16,104.35z"/>
	</g>
	<g>
		<path class="st4" d="M276.24,74.47c6.87,6.12,13.46,12.53,20.87,16.81c10.55,6.34,24.6,6.54,35.01,0.17
			c8.35-5.34,12.82-15.62,13.01-25.36c-0.2-9.62-5.66-19.76-13.38-25.01c-5.55-3.83-12.66-5.15-19.35-4.45
			c-13.19,1.73-24.28,12.5-33.55,22.14c-15.72,16.1-31.72,39.16-54.41,45.67c0,0-1.92,0.51-1.92,0.51c-0.97,0.15-2.99,0.5-3.97,0.64
			c-8.62,0.92-17.49-1.42-24.81-5.83c-14.51-8.61-21.79-23.74-18.74-40.49c3.61-22.5,23.69-35.84,45.87-31.86
			c9.97,1.81,18.35,8.25,25.05,15.25c3.29,3.37,6.34,6.83,9.39,10.24l-3.54,3.53c-6.66-5.91-13.13-12.53-20.72-16.92
			c-10.55-6.17-24.61-5.58-34.48,1.47c-8.17,5.87-12.06,16.07-11.91,25.96c-0.03,14.11,12.14,25.38,25.57,27.5
			c12.37,1.95,23.44-5.67,32.31-13.74c13.35-12.23,24.61-27.52,38.46-39.61c11.74-10.4,25.72-17.96,42.03-14.83
			c18.76,3.12,32.21,21.42,32.21,40.01c-0.31,7.89-2.65,15.39-6.93,22.07c-11.39,18.15-38.19,20.82-55.01,9.06
			c-7.99-5.4-14.23-12.44-20.59-19.39C272.71,78.02,276.24,74.47,276.24,74.47L276.24,74.47z"/>
	</g>
	<g>
		<g>
			<path class="st0" d="M318.93,74.62c0-3.1-2.51-5.61-5.61-5.61c-3.1,0-5.61,2.51-5.61,5.61c0,3.1,2.51,5.61,5.61,5.61
				C316.42,80.23,318.93,77.72,318.93,74.62z"/>
		</g>
	</g>
	<g>
		<g>
			<path class="st0" d="M330.14,65.31c0-3.1-2.51-5.61-5.61-5.61c-3.1,0-5.61,2.51-5.61,5.61c0,3.1,2.51,5.61,5.61,5.61
				C327.63,70.92,330.14,68.41,330.14,65.31z"/>
		</g>
	</g>
	<g>
		<g>
			<g>
				<path class="st1" d="M307.71,65.31c0-3.1-2.51-5.61-5.61-5.61c-3.1,0-5.61,2.51-5.61,5.61c0,3.1,2.51,5.61,5.61,5.61
					C305.2,70.92,307.71,68.41,307.71,65.31z"/>
			</g>
		</g>
	</g>
	<g>
		<g>
			<g>
				<path class="st1" d="M318.93,56c0-3.1-2.51-5.61-5.61-5.61c-3.1,0-5.61,2.51-5.61,5.61c0,3.1,2.51,5.61,5.61,5.61
					C316.42,61.61,318.93,59.1,318.93,56z"/>
			</g>
		</g>
	</g>
	<path class="st1" d="M228.13,62.48v3.75c0,1.03-0.84,1.86-1.87,1.86h-7.09v7.1c0,1.03-0.84,1.86-1.87,1.86h-3.74
		c-1.03,0-1.87-0.84-1.87-1.86v-7.1h-7.1c-1.03,0-1.86-0.84-1.86-1.86v-3.75c0-1.03,0.84-1.86,1.86-1.86h7.1v-7.1
		c0-1.03,0.84-1.86,1.87-1.86h3.74c1.03,0,1.87,0.84,1.87,1.86v7.1h7.09C227.29,60.62,228.13,61.46,228.13,62.48z"/>
</g>
</svg>
