<?xml version="1.0" encoding="utf-8"?>
<!-- Generator: Adobe Illustrator 26.0.1, SVG Export Plug-In . SVG Version: 6.00 Build 0)  -->
<svg version="1.1" id="Layer_1" xmlns="http://www.w3.org/2000/svg" xmlns:xlink="http://www.w3.org/1999/xlink" x="0px" y="0px"
	 viewBox="0 0 500 200" style="enable-background:new 0 0 500 200;" xml:space="preserve">
<style type="text/css">
	.st0{fill:#474748;}
	.st1{fill:#F15B3A;}
	.st2{opacity:0.75;fill:#FFFFFF;}
</style>
<g>
	<g>
		<g>
			<path class="st0" d="M213.53,99.15c0,5,2.5,7.51,7.51,7.51h22.52v11.26h-26.27c-12.51,0-18.76-6.25-18.76-18.77V12.83h15.01
				V99.15z"/>
			<path class="st0" d="M273.58,50.36h18.77v11.26h-18.77v37.53c0,5,2.5,7.51,7.51,7.51h22.52v11.26h-26.27
				c-12.51,0-18.76-6.25-18.76-18.77V31.6c0-12.51,6.25-18.76,18.76-18.76h22.52v11.26h-18.77c-5,0-7.51,2.5-7.51,7.51V50.36z"/>
			<path class="st0" d="M332.13,117.92L314.86,12.83h14.26l15.39,93.6l15.39-93.6h14.26L356.9,117.92H332.13z"/>
			<path class="st0" d="M400.43,50.36h18.77v11.26h-18.77v37.53c0,5,2.5,7.51,7.51,7.51h22.52v11.26h-26.27
				c-12.51,0-18.76-6.25-18.76-18.77V31.6c0-12.51,6.25-18.76,18.76-18.76h22.52v11.26h-18.77c-5,0-7.51,2.5-7.51,7.51V50.36z"/>
			<path class="st0" d="M460.48,99.15c0,5,2.5,7.51,7.51,7.51h22.52v11.26h-26.27c-12.51,0-18.76-6.25-18.76-18.77V12.83h15.01
				V99.15z"/>
		</g>
		<g>
			<path class="st1" d="M208.03,176.59c0,2.82,1.41,4.23,4.23,4.23h12.69v6.35h-14.81c-7.05,0-10.58-3.53-10.58-10.58v-38.08
				c0-7.05,3.52-10.58,10.58-10.58h12.69v6.35h-10.58c-2.82,0-4.23,1.41-4.23,4.23V176.59z"/>
			<path class="st1" d="M233.42,138.51c0-7.05,3.52-10.58,10.58-10.58h8.46c7.05,0,10.58,3.53,10.58,10.58v38.08
				c0,7.05-3.53,10.58-10.58,10.58H244c-7.05,0-10.58-3.53-10.58-10.58V138.51z M254.58,138.51c0-2.74-1.34-4.15-4.02-4.23h-4.66
				c-2.68,0.08-4.02,1.49-4.02,4.23v38.08c0,2.82,1.41,4.23,4.23,4.23h4.23c2.82,0,4.23-1.41,4.23-4.23V138.51z"/>
			<path class="st1" d="M313.81,187.17h-8.46v-42.74l-7.62,34.27h-10.16l-7.62-34.27v42.74h-8.46v-59.24h12.69l8.46,38.08
				l8.46-38.08h12.69V187.17z"/>
			<path class="st1" d="M341.32,127.93c7.05,0,10.58,3.53,10.58,10.58v21.16c0,7.05-3.54,10.58-10.62,10.58H330.7l0.04,16.92h-8.46
				v-59.24H341.32z M330.74,134.28v29.62h8.46c2.82,0,4.23-1.41,4.23-4.23v-21.16c0-2.82-1.41-4.23-4.23-4.23H330.74z"/>
			<path class="st1" d="M368.82,176.59c0,2.82,1.41,4.23,4.23,4.23h12.69v6.35h-14.81c-7.05,0-10.58-3.53-10.58-10.58v-48.66h8.46
				V176.59z"/>
			<path class="st1" d="M402.67,149.09h10.58v6.35h-10.58v21.16c0,2.82,1.41,4.23,4.23,4.23h12.69v6.35h-14.81
				c-7.05,0-10.58-3.53-10.58-10.58v-38.08c0-7.05,3.52-10.58,10.58-10.58h12.69v6.35H406.9c-2.82,0-4.23,1.41-4.23,4.23V149.09z"/>
			<path class="st1" d="M457.68,127.93v6.35H447.1v52.89h-8.46v-52.89h-10.58v-6.35H457.68z"/>
			<path class="st1" d="M474.6,149.09h10.58v6.35H474.6v21.16c0,2.82,1.41,4.23,4.23,4.23h12.69v6.35h-14.81
				c-7.05,0-10.58-3.53-10.58-10.58v-38.08c0-7.05,3.52-10.58,10.58-10.58h12.69v6.35h-10.58c-2.82,0-4.23,1.41-4.23,4.23V149.09z"
				/>
		</g>
		<g>
			<g>
				<path class="st1" d="M68.19,99.53c0-16.49-13.37-29.86-29.86-29.86c-16.49,0-29.86,13.37-29.86,29.86
					c0,16.49,13.37,29.86,29.86,29.86C54.82,129.39,68.19,116.02,68.19,99.53z"/>
			</g>
		</g>
		<g>
			<g>
				<path class="st1" d="M123.46,48.44c0-16.49-13.37-29.86-29.86-29.86c-16.49,0-29.86,13.37-29.86,29.86
					c0,16.49,13.37,29.86,29.86,29.86C110.09,78.29,123.46,64.93,123.46,48.44z"/>
			</g>
		</g>
		<g>
			<g>
				<path class="st0" d="M121.05,100c0,16.49,13.37,29.86,29.86,29.86c16.49,0,29.86-13.37,29.86-29.86
					c0-16.49-13.37-29.86-29.86-29.86C134.42,70.14,121.05,83.51,121.05,100z"/>
			</g>
		</g>
		<g>
			<g>
				<path class="st0" d="M63.96,151.38c0,16.49,13.37,29.86,29.86,29.86c16.49,0,29.86-13.37,29.86-29.86
					c0-16.49-13.37-29.86-29.86-29.86C77.33,121.52,63.96,134.89,63.96,151.38z"/>
			</g>
		</g>
	</g>
	<path class="st2" d="M68.76,51.33c0,0-3.96-15.04,10.2-24.11c12.25-7.85,23.37-3.5,24.31-2c-10.38,0.3-16.13,1.45-21.66,5.34
		C76.82,33.95,70.15,42.56,68.76,51.33z"/>
	<path class="st2" d="M68.76,153.9c0,0-3.96-15.04,10.2-24.11c12.25-7.85,23.37-3.5,24.31-2c-10.38,0.3-16.13,1.45-21.66,5.34
		C76.82,136.51,70.15,145.12,68.76,153.9z"/>
</g>
</svg>
